<?xml version="1.0" standalone="no"?>
<!DOCTYPE svg PUBLIC "-//W3C//DTD SVG 20010904//EN"
 "http://www.w3.org/TR/2001/REC-SVG-20010904/DTD/svg10.dtd">
<svg version="1.0" xmlns="http://www.w3.org/2000/svg"
 width="500.000000pt" height="500.000000pt" viewBox="0 0 500.000000 500.000000"
 preserveAspectRatio="xMidYMid meet">
<metadata>
Created by potrace 1.14, written by Peter Selinger 2001-2017
</metadata>
<g transform="translate(0.000000,500.000000) scale(0.100000,-0.100000)"
fill="#000000" stroke="none">
<path d="M2991 4459 c-11 -23 -19 -45 -16 -49 2 -3 -3 -29 -11 -56 -17 -58
-24 -88 -31 -130 l-5 -32 -32 37 c-18 20 -41 51 -52 69 -10 17 -22 32 -26 32
-4 0 -8 6 -8 13 0 6 -15 28 -33 48 -42 47 -75 46 -92 -2 -24 -65 -69 -398 -58
-427 5 -12 40 -36 55 -37 3 0 10 -3 14 -7 4 -5 16 -8 26 -8 10 0 18 -4 18 -10
0 -5 7 -10 15 -10 19 0 84 -36 113 -63 19 -17 22 -28 17 -52 -10 -49 -15 -69
-19 -93 -3 -12 -7 -26 -10 -30 -3 -5 -7 -19 -9 -33 -11 -60 -29 -108 -47 -129
-11 -13 -20 -29 -20 -37 0 -7 -4 -13 -8 -13 -5 0 -9 -7 -10 -15 -1 -8 -3 -22
-4 -30 -1 -8 -4 -15 -8 -15 -4 0 -13 -18 -20 -40 -7 -22 -16 -40 -19 -40 -4 0
-7 -9 -8 -19 -1 -10 -10 -39 -21 -63 -17 -38 -53 -168 -65 -238 -3 -14 -12
-52 -21 -85 -9 -33 -17 -79 -17 -103 -1 -43 -1 -43 -32 -38 -18 3 -50 10 -72
16 -92 24 -265 32 -350 16 -22 -5 -47 -8 -55 -8 -8 0 -29 -4 -46 -9 -17 -5
-40 -11 -50 -13 -33 -7 -108 -39 -136 -58 -14 -10 -31 -18 -36 -18 -6 0 -17
-6 -24 -13 -7 -7 -26 -21 -42 -31 -59 -38 -182 -159 -192 -188 -3 -10 -9 -18
-14 -18 -10 0 -76 -121 -72 -132 1 -4 -2 -8 -7 -8 -5 0 -13 -15 -16 -33 -4
-17 -11 -37 -16 -42 -9 -12 -19 -53 -26 -107 -3 -21 -8 -38 -12 -38 -14 0 -19
-196 -9 -310 9 -91 40 -214 78 -305 7 -16 14 -36 16 -44 1 -8 9 -18 16 -22 7
-5 10 -9 6 -9 -10 0 21 -80 39 -101 7 -8 13 -21 13 -27 0 -7 9 -21 21 -33 11
-11 18 -27 15 -35 -3 -9 1 -14 11 -14 14 0 14 -2 -2 -14 -18 -13 -18 -14 10
-10 23 3 25 2 11 -4 -19 -8 -19 -9 3 -15 17 -4 22 -11 17 -22 -3 -9 -2 -14 2
-11 14 9 33 -10 34 -35 1 -13 6 -30 11 -36 7 -9 5 -13 -7 -13 -9 0 -16 -5 -16
-11 0 -5 4 -8 9 -5 12 8 34 -21 26 -34 -3 -5 -2 -10 2 -10 5 0 14 -9 21 -21 8
-12 9 -19 4 -15 -5 3 -9 -1 -9 -8 0 -8 6 -12 14 -9 14 5 19 -12 6 -20 -5 -2
-3 -3 4 -1 18 4 24 -8 11 -23 -8 -10 -8 -12 4 -8 11 4 20 -3 29 -24 7 -16 24
-35 36 -42 13 -7 23 -18 23 -26 0 -7 5 -13 10 -13 6 0 10 -8 11 -17 0 -11 3
-13 6 -6 3 10 8 9 20 -3 9 -8 22 -13 29 -10 8 3 14 2 14 -2 0 -9 70 -37 83
-34 4 1 7 -2 7 -6 0 -4 10 -9 23 -10 12 -1 31 -3 42 -5 11 -1 23 -6 27 -12 5
-7 8 -6 8 0 0 6 18 11 40 11 25 0 37 -3 33 -10 -4 -6 0 -5 9 2 18 15 76 13 97
-2 11 -8 13 -8 7 2 -5 9 6 12 48 12 34 0 56 -5 59 -12 3 -8 6 -6 6 4 1 14 8
17 41 14 22 -2 38 0 34 5 -4 8 40 14 49 7 2 -2 11 3 20 11 14 11 20 11 32 1
13 -11 14 -10 8 5 -5 15 -3 17 12 11 11 -4 16 -4 12 0 -4 4 5 13 19 21 35 17
39 17 23 -4 -8 -10 10 6 39 35 30 29 58 50 63 47 5 -4 9 0 9 7 0 8 14 28 30
46 17 18 30 37 30 43 0 16 19 10 32 -11 7 -11 18 -20 25 -20 7 0 10 -7 7 -15
-4 -8 -2 -15 4 -15 19 0 7 27 -23 53 -25 23 -28 28 -15 37 8 5 11 10 5 10 -5
0 -4 4 3 9 7 4 16 23 19 42 3 19 9 42 14 51 5 9 9 30 9 47 0 23 5 31 18 32 15
0 15 1 -2 8 -17 7 -17 8 -2 24 10 9 14 17 9 17 -4 0 -2 4 5 9 7 4 14 16 16 25
1 10 8 21 15 25 7 5 12 11 12 15 -3 17 12 56 22 56 6 0 7 3 4 7 -4 3 0 15 10
25 13 14 13 18 2 18 -9 0 -10 3 -3 8 15 9 47 85 63 147 7 28 16 59 21 70 35
92 42 131 44 258 1 74 0 156 -4 183 -3 27 0 65 6 84 7 19 15 51 18 70 3 19 10
51 16 70 9 32 6 321 -5 425 -7 70 -16 128 -19 134 -2 3 -7 29 -10 56 -4 28 -9
64 -12 80 -3 17 -7 53 -8 81 -2 28 -6 55 -9 60 -3 5 -8 38 -12 74 -3 35 -9 68
-11 72 -8 12 -14 180 -8 201 7 23 23 22 75 -5 48 -25 119 -92 164 -153 92
-124 195 -161 303 -109 28 14 52 30 52 35 0 5 7 9 16 9 20 0 147 127 139 140
-3 6 -2 10 2 10 12 0 17 79 14 184 -1 19 -99 126 -116 126 -20 0 -178 85 -206
111 -15 14 -30 25 -32 22 -4 -3 -61 115 -62 129 0 3 -3 10 -7 14 -19 18 -5 61
40 123 26 36 47 72 46 79 -1 6 -2 20 -3 31 -1 16 -46 44 -76 47 -32 2 -118
-53 -113 -74 0 -4 -6 -22 -14 -40 l-15 -34 -22 27 c-11 15 -21 34 -21 41 0 8
-4 14 -10 14 -5 0 -10 7 -10 16 0 9 -9 29 -20 45 -12 15 -26 42 -31 59 -6 16
-14 30 -19 30 -4 0 -22 35 -40 78 -37 89 -56 117 -87 126 -19 6 -25 0 -42 -35z"/>
<path d="M2960 1206 c0 -2 8 -10 18 -17 15 -13 16 -12 3 4 -13 16 -21 21 -21
13z"/>
<path d="M2953 1135 c0 -8 4 -12 9 -9 4 3 8 9 8 15 0 5 -4 9 -8 9 -5 0 -9 -7
-9 -15z"/>
<path d="M1554 1113 c2 -9 8 -18 15 -19 6 -1 7 0 2 2 -6 3 -7 12 -4 20 3 8 1
14 -5 14 -6 0 -9 -8 -8 -17z"/>
<path d="M2973 1117 c-3 -5 0 -14 6 -20 9 -9 10 -7 5 8 -7 17 -5 18 7 8 13
-10 16 -10 16 0 0 15 -25 18 -34 4z"/>
<path d="M2950 1101 c0 -6 4 -13 10 -16 6 -3 7 1 4 9 -7 18 -14 21 -14 7z"/>
<path d="M3008 1088 c-10 -10 -14 -18 -9 -18 10 0 36 29 30 34 -2 1 -12 -6
-21 -16z"/>
<path d="M1595 1090 c-3 -5 -1 -10 4 -10 6 0 11 5 11 10 0 6 -2 10 -4 10 -3 0
-8 -4 -11 -10z"/>
<path d="M1540 1086 c0 -2 8 -10 18 -17 15 -13 16 -12 3 4 -13 16 -21 21 -21
13z"/>
<path d="M2928 1073 c11 -18 42 -27 42 -11 0 6 -7 8 -15 4 -9 -3 -15 0 -15 9
0 8 -5 15 -10 15 -7 0 -8 -6 -2 -17z"/>
<path d="M1590 1061 c8 -5 17 -8 21 -5 4 2 7 -5 6 -16 -1 -12 -6 -19 -14 -16
-7 3 -13 1 -13 -5 0 -6 8 -9 17 -7 11 2 18 12 18 27 0 18 -6 25 -25 28 -18 2
-21 1 -10 -6z"/>
<path d="M2980 1051 c0 -6 4 -13 10 -16 6 -3 7 1 4 9 -7 18 -14 21 -14 7z"/>
<path d="M1570 1035 c0 -8 2 -15 4 -15 2 0 6 7 10 15 3 8 1 15 -4 15 -6 0 -10
-7 -10 -15z"/>
<path d="M2915 1039 c-4 -6 -5 -12 -2 -15 2 -3 7 2 10 11 7 17 1 20 -8 4z"/>
<path d="M2935 1031 c-3 -6 5 -15 17 -21 21 -10 21 -10 6 3 -10 8 -15 17 -11
20 3 4 4 7 0 7 -3 0 -8 -4 -12 -9z"/>
<path d="M2977 1019 c7 -7 15 -10 18 -7 3 3 -2 9 -12 12 -14 6 -15 5 -6 -5z"/>
<path d="M1575 993 c1 -11 10 -17 22 -16 12 1 19 -5 20 -18 1 -11 -2 -17 -7
-14 -15 9 -22 -14 -10 -32 9 -16 10 -15 5 5 -5 16 -3 22 7 20 8 -2 13 6 13 22
-1 20 -5 24 -23 23 -13 -2 -21 1 -17 6 3 5 1 12 -4 15 -5 4 -8 -2 -6 -11z"/>
<path d="M2912 994 c-7 -8 -8 -14 -3 -14 10 0 25 19 20 25 -2 1 -10 -3 -17
-11z"/>
<path d="M3000 1000 c-9 -6 -10 -10 -3 -10 6 0 15 5 18 10 8 12 4 12 -15 0z"/>
<path d="M2939 988 c0 -2 -2 -14 -5 -28 -3 -18 -2 -21 5 -10 5 8 8 17 5 21 -2
4 6 10 18 12 l23 4 -22 2 c-13 0 -23 0 -24 -1z"/>
<path d="M3011 967 c-13 -21 -12 -21 5 -5 10 10 16 20 13 22 -3 3 -11 -5 -18
-17z"/>
<path d="M1534 959 c0 -12 4 -15 12 -9 6 6 14 7 17 3 4 -3 7 -2 7 4 0 6 -8 13
-18 15 -12 4 -18 -1 -18 -13z"/>
<path d="M1641 964 c0 -11 3 -14 6 -6 3 7 2 16 -1 19 -3 4 -6 -2 -5 -13z"/>
<path d="M2975 960 c3 -5 8 -10 11 -10 2 0 4 5 4 10 0 6 -5 10 -11 10 -5 0 -7
-4 -4 -10z"/>
<path d="M1654 939 c-3 -6 -3 -13 0 -16 3 -4 6 -1 6 5 0 6 7 9 15 6 8 -4 15
-4 15 -1 0 11 -30 16 -36 6z"/>
<path d="M2950 940 c0 -5 5 -10 10 -10 6 0 10 5 10 10 0 6 -4 10 -10 10 -5 0
-10 -4 -10 -10z"/>
<path d="M3050 939 c0 -5 5 -7 10 -4 6 3 10 8 10 11 0 2 -4 4 -10 4 -5 0 -10
-5 -10 -11z"/>
<path d="M2976 923 c-6 -14 -5 -15 5 -6 7 7 10 15 7 18 -3 3 -9 -2 -12 -12z"/>
<path d="M3022 924 c10 -10 20 -16 22 -13 3 3 -5 11 -17 18 -21 13 -21 12 -5
-5z"/>
<path d="M1530 921 c0 -6 4 -13 10 -16 6 -3 7 1 4 9 -7 18 -14 21 -14 7z"/>
<path d="M1630 918 c0 -9 5 -20 10 -23 13 -8 13 5 0 25 -8 13 -10 13 -10 -2z"/>
<path d="M1575 901 c-6 -11 13 -26 22 -17 4 3 1 6 -6 6 -7 0 -9 5 -6 10 3 6 4
10 1 10 -3 0 -7 -4 -11 -9z"/>
<path d="M1661 883 c-1 -13 -7 -22 -13 -20 -8 1 -13 -8 -13 -20 0 -13 5 -23
10 -22 6 0 13 -10 17 -23 7 -22 7 -22 5 2 -1 14 -8 24 -15 23 -6 -2 -12 6 -12
18 0 11 5 17 10 14 12 -7 24 19 17 37 -3 7 -6 3 -6 -9z"/>
<path d="M2962 884 c-7 -8 -8 -14 -3 -14 10 0 25 19 20 25 -2 1 -10 -3 -17
-11z"/>
<path d="M1515 881 c-3 -5 -2 -12 3 -15 5 -3 9 1 9 9 0 17 -3 19 -12 6z"/>
<path d="M1547 871 c-3 -13 -1 -18 9 -14 7 2 10 11 7 19 -7 19 -10 18 -16 -5z"/>
<path d="M1610 880 c0 -5 5 -10 10 -10 6 0 10 5 10 10 0 6 -4 10 -10 10 -5 0
-10 -4 -10 -10z"/>
<path d="M1690 870 c6 -11 13 -20 16 -20 2 0 0 9 -6 20 -6 11 -13 20 -16 20
-2 0 0 -9 6 -20z"/>
<path d="M2890 885 c0 -8 29 -12 39 -5 9 5 4 8 -13 8 -14 0 -26 -2 -26 -3z"/>
<path d="M3016 878 c3 -4 11 -5 19 -1 21 7 19 12 -4 10 -11 0 -18 -5 -15 -9z"/>
<path d="M2937 849 c4 -13 8 -18 11 -10 2 7 -1 18 -6 23 -8 8 -9 4 -5 -13z"/>
<path d="M1597 853 c-4 -3 -7 -11 -7 -17 0 -6 5 -5 12 2 6 6 9 14 7 17 -3 3
-9 2 -12 -2z"/>
<path d="M1510 840 c0 -5 5 -10 11 -10 5 0 7 5 4 10 -3 6 -8 10 -11 10 -2 0
-4 -4 -4 -10z"/>
<path d="M1670 838 c0 -6 3 -8 7 -5 3 4 11 -1 18 -10 9 -13 14 -13 20 -3 5 8
4 11 -2 7 -6 -4 -13 0 -17 8 -6 18 -26 20 -26 3z"/>
<path d="M2840 840 c18 -12 30 -13 30 -2 0 4 -10 9 -22 9 -18 2 -20 0 -8 -7z"/>
<path d="M2973 836 c-3 -6 -3 -8 2 -4 4 4 13 3 20 -2 8 -7 12 -5 12 3 0 16
-25 18 -34 3z"/>
<path d="M2830 806 c5 -13 6 -27 3 -30 -4 -3 -2 -6 4 -6 15 0 11 49 -4 54 -9
4 -10 -1 -3 -18z"/>
<path d="M2910 820 c-13 -8 -12 -10 3 -10 9 0 17 5 17 10 0 12 -1 12 -20 0z"/>
<path d="M2874 812 c3 -5 0 -13 -6 -15 -8 -3 -6 -6 5 -6 19 -1 23 14 5 25 -6
4 -8 3 -4 -4z"/>
<path d="M2940 811 c0 -10 19 -25 25 -20 1 2 -3 10 -11 17 -8 7 -14 8 -14 3z"/>
<path d="M2970 816 c0 -2 8 -10 18 -17 15 -13 16 -12 3 4 -13 16 -21 21 -21
13z"/>
<path d="M1690 792 c6 -12 15 -20 19 -18 4 3 13 -6 20 -20 6 -14 16 -22 21
-19 5 3 9 -2 7 -12 -1 -10 3 -19 8 -20 6 -1 13 -12 17 -25 7 -22 7 -22 5 2 -1
14 -8 24 -15 23 -15 -4 -15 3 -2 27 8 16 7 18 -9 15 -12 -2 -22 5 -30 22 -7
14 -15 23 -18 19 -3 -3 -12 2 -20 12 -13 15 -13 15 -3 -6z"/>
<path d="M1727 797 c3 -4 8 -6 11 -3 3 3 15 -2 26 -11 15 -14 18 -14 8 -2 -6
9 -10 18 -7 20 2 3 -6 5 -20 5 -13 0 -21 -4 -18 -9z"/>
<path d="M1590 781 c0 -16 28 -33 35 -21 4 6 1 9 -7 8 -7 -2 -12 3 -10 10 1 6
-2 12 -8 12 -5 0 -10 -4 -10 -9z"/>
<path d="M1620 786 c0 -2 7 -6 15 -10 8 -3 15 -1 15 4 0 6 -7 10 -15 10 -8 0
-15 -2 -15 -4z"/>
<path d="M2895 780 c-3 -6 1 -7 9 -4 18 7 21 14 7 14 -6 0 -13 -4 -16 -10z"/>
<path d="M2735 769 c-4 -6 -5 -12 -2 -15 2 -3 7 2 10 11 7 17 1 20 -8 4z"/>
<path d="M1665 760 c-3 -5 -2 -10 4 -10 5 0 13 5 16 10 3 6 2 10 -4 10 -5 0
-13 -4 -16 -10z"/>
<path d="M1790 760 c0 -5 5 -10 11 -10 5 0 7 5 4 10 -3 6 -8 10 -11 10 -2 0
-4 -4 -4 -10z"/>
<path d="M2796 754 c-9 -24 -2 -26 12 -4 7 11 8 20 3 20 -5 0 -12 -7 -15 -16z"/>
<path d="M2860 766 c0 -2 7 -7 16 -10 8 -3 12 -2 9 4 -6 10 -25 14 -25 6z"/>
<path d="M2905 759 c-4 -6 -5 -12 -2 -15 2 -3 7 2 10 11 7 17 1 20 -8 4z"/>
<path d="M3035 760 c3 -5 8 -10 11 -10 2 0 4 5 4 10 0 6 -5 10 -11 10 -5 0 -7
-4 -4 -10z"/>
<path d="M2755 750 c-3 -6 1 -7 9 -4 18 7 21 14 7 14 -6 0 -13 -4 -16 -10z"/>
<path d="M2840 749 c0 -5 -4 -8 -9 -5 -9 6 -41 -35 -41 -51 0 -4 9 5 19 20 10
16 22 28 27 27 5 -1 10 3 12 9 2 6 1 11 -2 11 -3 0 -6 -5 -6 -11z"/>
<path d="M1634 728 c1 -16 -4 -22 -14 -20 -8 2 -11 0 -7 -4 17 -18 32 -10 33
17 1 16 -2 29 -6 29 -4 0 -7 -10 -6 -22z"/>
<path d="M1713 724 c0 -17 2 -22 7 -13 5 6 6 18 3 26 -8 19 -10 16 -10 -13z"/>
<path d="M2708 733 c6 -2 9 -10 6 -15 -4 -7 -2 -8 5 -4 13 9 5 26 -12 25 -9 0
-8 -2 1 -6z"/>
<path d="M2936 727 c3 -10 9 -15 12 -12 3 3 0 11 -7 18 -10 9 -11 8 -5 -6z"/>
<path d="M1675 720 c-3 -6 1 -7 9 -4 18 7 21 14 7 14 -6 0 -13 -4 -16 -10z"/>
<path d="M1791 713 c7 -12 15 -20 18 -17 3 2 -3 12 -13 22 -17 16 -18 16 -5
-5z"/>
<path d="M2746 718 c3 -4 12 -8 20 -8 8 0 14 4 14 8 0 4 -9 8 -19 8 -11 0 -17
-4 -15 -8z"/>
<path d="M2840 715 c-7 -9 -11 -17 -9 -20 3 -2 10 5 17 15 14 24 10 26 -8 5z"/>
<path d="M2909 717 c6 -8 7 -18 3 -22 -4 -5 -1 -5 6 -1 10 6 10 11 1 22 -6 8
-14 14 -16 14 -3 0 0 -6 6 -13z"/>
<path d="M2725 699 c-4 -6 -4 -13 -1 -16 3 -4 6 -1 6 6 0 7 5 9 12 5 7 -4 8
-3 4 4 -9 15 -13 15 -21 1z"/>
<path d="M1824 686 c-10 -8 -17 -16 -14 -19 3 -2 14 4 24 14 23 22 18 25 -10
5z"/>
<path d="M2811 684 c0 -11 3 -14 6 -6 3 7 2 16 -1 19 -3 4 -6 -2 -5 -13z"/>
<path d="M1685 680 c-3 -6 1 -7 9 -4 18 7 21 14 7 14 -6 0 -13 -4 -16 -10z"/>
<path d="M1730 679 c0 -5 4 -8 9 -4 6 3 14 -3 20 -12 6 -10 11 -13 11 -7 0 12
-20 34 -32 34 -4 0 -8 -5 -8 -11z"/>
<path d="M1907 679 c7 -7 15 -10 18 -7 3 3 -2 9 -12 12 -14 6 -15 5 -6 -5z"/>
<path d="M2671 674 c0 -11 3 -14 6 -6 3 7 2 16 -1 19 -3 4 -6 -2 -5 -13z"/>
<path d="M2750 680 c-8 -5 -10 -10 -5 -10 6 0 17 5 25 10 8 5 11 10 5 10 -5 0
-17 -5 -25 -10z"/>
<path d="M2853 673 c0 -9 4 -10 14 -2 7 6 13 12 13 14 0 1 -6 2 -13 2 -8 0
-14 -6 -14 -14z"/>
<path d="M2790 671 c0 -6 4 -13 10 -16 6 -3 7 1 4 9 -7 18 -14 21 -14 7z"/>
<path d="M1717 646 c20 -26 27 -28 17 -3 -3 8 -12 18 -20 21 -11 4 -10 0 3
-18z"/>
<path d="M1830 660 c0 -6 7 -10 15 -10 8 0 15 2 15 4 0 2 -7 6 -15 10 -8 3
-15 1 -15 -4z"/>
<path d="M2710 660 c0 -5 5 -10 10 -10 6 0 10 5 10 10 0 6 -4 10 -10 10 -5 0
-10 -4 -10 -10z"/>
<path d="M2606 643 c-8 -20 9 -40 19 -22 6 8 4 10 -5 4 -9 -5 -10 -2 -5 14 8
25 0 29 -9 4z"/>
<path d="M1690 641 c0 -6 4 -13 10 -16 6 -3 7 1 4 9 -7 18 -14 21 -14 7z"/>
<path d="M1790 639 c0 -5 5 -7 10 -4 6 3 10 8 10 11 0 2 -4 4 -10 4 -5 0 -10
-5 -10 -11z"/>
<path d="M1870 640 c0 -5 7 -7 15 -4 8 4 15 8 15 10 0 2 -7 4 -15 4 -8 0 -15
-4 -15 -10z"/>
<path d="M1959 648 c-5 -18 -6 -38 -1 -34 7 8 12 36 6 36 -2 0 -4 -1 -5 -2z"/>
<path d="M2434 628 c-19 -23 -19 -23 2 -5 11 9 24 14 29 10 4 -5 5 -2 1 5 -9
16 -10 16 -32 -10z"/>
<path d="M2564 639 c-3 -6 -2 -15 4 -21 6 -6 12 -6 17 3 6 8 4 10 -5 4 -10 -6
-12 -4 -7 8 7 19 2 23 -9 6z"/>
<path d="M2666 638 c3 -4 11 -5 19 -1 21 7 19 12 -4 10 -11 0 -18 -5 -15 -9z"/>
<path d="M2740 640 c0 -5 7 -7 15 -4 8 4 15 8 15 10 0 2 -7 4 -15 4 -8 0 -15
-4 -15 -10z"/>
<path d="M1815 631 c-8 -14 10 -22 31 -14 13 5 15 3 9 -7 -5 -9 -4 -11 4 -6
18 12 2 28 -21 20 -14 -4 -18 -2 -14 5 4 6 5 11 2 11 -3 0 -7 -4 -11 -9z"/>
<path d="M2035 631 c-3 -5 -2 -12 3 -15 5 -3 9 1 9 9 0 17 -3 19 -12 6z"/>
<path d="M2515 631 c-6 -11 13 -26 22 -17 4 3 1 6 -6 6 -7 0 -9 5 -6 10 3 6 4
10 1 10 -3 0 -7 -4 -11 -9z"/>
<path d="M2716 627 c3 -10 9 -15 12 -12 3 3 0 11 -7 18 -10 9 -11 8 -5 -6z"/>
<path d="M1656 618 c3 -5 10 -6 15 -3 13 9 11 12 -6 12 -8 0 -12 -4 -9 -9z"/>
<path d="M1913 600 c0 -23 3 -28 9 -16 5 9 5 23 0 32 -6 12 -9 7 -9 -16z"/>
<path d="M1980 627 c0 -9 31 -37 41 -37 5 0 9 5 9 12 0 6 -3 8 -7 5 -3 -4 -15
0 -25 10 -10 9 -18 13 -18 10z"/>
<path d="M2230 626 c0 -2 7 -7 16 -10 8 -3 12 -2 9 4 -6 10 -25 14 -25 6z"/>
<path d="M2640 626 c0 -2 7 -7 16 -10 8 -3 12 -2 9 4 -6 10 -25 14 -25 6z"/>
<path d="M2694 623 c4 -7 3 -13 -2 -13 -6 0 -12 -6 -15 -13 -3 -7 3 -13 12
-13 18 0 22 29 6 43 -4 5 -5 2 -1 -4z"/>
<path d="M1750 610 c-9 -6 -10 -10 -3 -10 6 0 15 5 18 10 8 12 4 12 -15 0z"/>
<path d="M1780 616 c0 -2 7 -7 16 -10 8 -3 12 -2 9 4 -6 10 -25 14 -25 6z"/>
<path d="M2090 605 c-7 -9 -11 -17 -9 -20 3 -2 10 5 17 15 14 24 10 26 -8 5z"/>
<path d="M2457 613 c-10 -21 0 -38 21 -36 15 2 21 -1 16 -9 -4 -7 -3 -8 5 -4
17 11 2 28 -19 21 -15 -5 -18 -2 -15 14 4 21 0 28 -8 14z"/>
<path d="M2913 605 c0 -8 4 -12 9 -9 5 3 6 10 3 15 -9 13 -12 11 -12 -6z"/>
<path d="M1875 599 c-11 -16 -1 -19 13 -3 7 8 8 14 3 14 -5 0 -13 -5 -16 -11z"/>
<path d="M1965 599 c-4 -6 -5 -12 -2 -15 2 -3 7 2 10 11 7 17 1 20 -8 4z"/>
<path d="M2386 599 c3 -5 9 -7 14 -4 4 3 11 0 13 -5 3 -6 4 -5 3 1 -1 7 -10
13 -19 15 -9 1 -15 -2 -11 -7z"/>
<path d="M2550 600 c0 -6 7 -13 15 -16 8 -4 12 -11 8 -17 -3 -6 -1 -7 5 -3 15
9 15 9 -8 29 -11 9 -20 12 -20 7z"/>
<path d="M2590 600 c0 -5 9 -14 20 -20 11 -6 20 -9 20 -8 0 2 -9 11 -20 21
-11 9 -20 13 -20 7z"/>
<path d="M2630 599 c0 -5 5 -7 10 -4 6 3 10 8 10 11 0 2 -4 4 -10 4 -5 0 -10
-5 -10 -11z"/>
<path d="M2277 589 c7 -7 15 -10 18 -7 3 3 -2 9 -12 12 -14 6 -15 5 -6 -5z"/>
<path d="M1793 573 c0 -9 4 -10 14 -2 7 6 13 12 13 14 0 1 -6 2 -13 2 -8 0
-14 -6 -14 -14z"/>
<path d="M1925 564 c-9 -15 -12 -23 -6 -20 11 7 35 46 28 46 -3 0 -12 -12 -22
-26z"/>
<path d="M2190 581 c0 -6 4 -13 10 -16 6 -3 7 1 4 9 -7 18 -14 21 -14 7z"/>
<path d="M2430 581 c0 -6 4 -13 10 -16 6 -3 7 1 4 9 -7 18 -14 21 -14 7z"/>
<path d="M2816 582 c-2 -4 -1 -14 4 -22 7 -11 9 -9 7 8 -1 24 -3 26 -11 14z"/>
<path d="M2039 573 c0 -5 -2 -16 -4 -25 -2 -10 0 -18 5 -18 4 0 8 11 8 25 0
22 -7 36 -9 18z"/>
<path d="M2115 570 c-4 -6 -11 -8 -16 -5 -5 4 -9 1 -9 -4 0 -16 16 -13 30 4 7
8 10 15 7 15 -3 0 -9 -5 -12 -10z"/>
<path d="M2174 556 c1 -14 9 -20 28 -20 14 -1 24 2 21 7 -3 5 -14 7 -24 4 -11
-3 -19 1 -22 12 -3 11 -4 10 -3 -3z"/>
<path d="M2348 573 c6 -2 10 -9 7 -14 -4 -5 1 -6 10 -2 13 5 14 7 3 14 -7 5
-17 8 -23 8 -5 0 -4 -3 3 -6z"/>
<path d="M2517 567 c-3 -8 -2 -20 3 -26 5 -9 8 -4 8 13 0 29 -3 32 -11 13z"/>
<path d="M1885 560 c3 -5 8 -10 11 -10 2 0 4 5 4 10 0 6 -5 10 -11 10 -5 0 -7
-4 -4 -10z"/>
<path d="M1970 560 c0 -5 5 -10 10 -10 6 0 10 5 10 10 0 6 -4 10 -10 10 -5 0
-10 -4 -10 -10z"/>
<path d="M2141 553 c-5 -10 -13 -17 -18 -15 -4 2 -9 -4 -11 -12 -2 -9 1 -16 7
-16 6 0 7 7 4 17 -4 10 -2 14 5 9 6 -3 16 3 22 14 13 24 5 27 -9 3z"/>
<path d="M2228 558 c5 -5 16 -8 23 -6 8 3 3 7 -10 11 -17 4 -21 3 -13 -5z"/>
<path d="M2276 555 c-9 -26 -7 -32 5 -12 6 10 9 21 6 23 -2 3 -7 -2 -11 -11z"/>
<path d="M2414 551 c1 -8 12 -15 28 -15 14 -1 24 2 21 7 -3 5 -14 7 -24 4 -10
-3 -20 0 -22 7 -2 6 -3 5 -3 -3z"/>
<path d="M2596 562 c-3 -5 1 -9 9 -9 8 0 12 4 9 9 -3 4 -7 8 -9 8 -2 0 -6 -4
-9 -8z"/>
<path d="M2686 558 c3 -5 10 -6 15 -3 13 9 11 12 -6 12 -8 0 -12 -4 -9 -9z"/>
<path d="M1770 539 c0 -5 5 -7 10 -4 6 3 10 8 10 11 0 2 -4 4 -10 4 -5 0 -10
-5 -10 -11z"/>
<path d="M1939 548 c-6 -21 -5 -38 1 -38 5 0 8 9 7 20 -1 17 -5 26 -8 18z"/>
<path d="M2290 530 c-6 -12 -5 -17 5 -17 7 0 11 5 9 12 -3 6 5 11 16 12 11 1
18 -2 16 -6 -3 -4 0 -13 5 -21 7 -11 8 -8 6 10 -5 30 -43 37 -57 10z"/>
<path d="M2376 533 c7 -25 31 -38 31 -17 0 8 -3 12 -5 9 -3 -3 -11 3 -18 13
-12 15 -13 15 -8 -5z"/>
<path d="M2496 537 c3 -10 9 -15 12 -12 3 3 0 11 -7 18 -10 9 -11 8 -5 -6z"/>
<path d="M2667 539 c7 -7 15 -10 18 -7 3 3 -2 9 -12 12 -14 6 -15 5 -6 -5z"/>
<path d="M2075 532 c-12 -8 -17 -44 -5 -37 6 4 22 45 17 45 -1 0 -6 -4 -12 -8z"/>
<path d="M2616 527 c3 -10 9 -15 12 -12 3 3 0 11 -7 18 -10 9 -11 8 -5 -6z"/>
<path d="M1995 520 c-3 -5 -2 -10 4 -10 5 0 13 5 16 10 3 6 2 10 -4 10 -5 0
-13 -4 -16 -10z"/>
<path d="M2160 520 c8 -5 20 -10 25 -10 6 0 3 5 -5 10 -8 5 -19 10 -25 10 -5
0 -3 -5 5 -10z"/>
<path d="M2235 520 c-3 -5 -2 -10 4 -10 5 0 13 5 16 10 3 6 2 10 -4 10 -5 0
-13 -4 -16 -10z"/>
<path d="M1855 500 c3 -5 8 -10 11 -10 2 0 4 5 4 10 0 6 -5 10 -11 10 -5 0 -7
-4 -4 -10z"/>
<path d="M1896 498 c3 -5 10 -6 15 -3 13 9 11 12 -6 12 -8 0 -12 -4 -9 -9z"/>
<path d="M1960 495 c-7 -9 -11 -17 -9 -20 3 -2 10 5 17 15 14 24 10 26 -8 5z"/>
<path d="M2153 495 c0 -8 4 -12 9 -9 5 3 6 10 3 15 -9 13 -12 11 -12 -6z"/>
<path d="M2190 500 c-11 -7 -11 -10 -2 -10 8 0 10 -5 6 -12 -4 -7 -4 -10 1 -6
4 4 13 4 19 -2 8 -6 12 -2 13 13 2 17 0 19 -7 7 -9 -14 -14 -7 -11 13 1 9 -1
9 -19 -3z"/>
<path d="M2259 508 c0 -2 -2 -13 -3 -25 -2 -16 1 -20 9 -13 7 5 16 6 20 2 5
-4 5 -2 2 5 -4 6 -1 14 5 17 7 3 2 3 -11 0 -16 -4 -21 -3 -17 5 4 6 5 11 2 11
-3 0 -6 -1 -7 -2z"/>
<path d="M2315 501 c-3 -5 -2 -12 3 -15 5 -3 9 1 9 9 0 17 -3 19 -12 6z"/>
<path d="M2455 490 c-4 -6 -11 -8 -16 -5 -5 4 -9 1 -9 -4 0 -16 16 -13 30 4 7
8 10 15 7 15 -3 0 -9 -5 -12 -10z"/>
<path d="M2550 496 c0 -2 8 -10 18 -17 15 -13 16 -12 3 4 -13 16 -21 21 -21
13z"/>
<path d="M2357 475 c-4 -8 -3 -16 1 -19 4 -3 9 4 9 15 2 23 -3 25 -10 4z"/>
<path d="M2075 440 c-3 -5 -1 -10 4 -10 6 0 11 5 11 10 0 6 -2 10 -4 10 -3 0
-8 -4 -11 -10z"/>
<path d="M2239 433 c-13 -16 -12 -17 4 -4 16 13 21 21 13 21 -2 0 -10 -8 -17
-17z"/>
<path d="M2420 446 c0 -2 8 -10 18 -17 15 -13 16 -12 3 4 -13 16 -21 21 -21
13z"/>
<path d="M2195 420 c-3 -5 -1 -10 4 -10 6 0 11 5 11 10 0 6 -2 10 -4 10 -3 0
-8 -4 -11 -10z"/>
<path d="M2506 398 c3 -5 10 -6 15 -3 13 9 11 12 -6 12 -8 0 -12 -4 -9 -9z"/>
</g>
</svg>
