<?xml version="1.0" standalone="no"?>
<!DOCTYPE svg PUBLIC "-//W3C//DTD SVG 20010904//EN"
 "http://www.w3.org/TR/2001/REC-SVG-20010904/DTD/svg10.dtd">
<svg version="1.0" xmlns="http://www.w3.org/2000/svg"
 width="500.000000pt" height="500.000000pt" viewBox="0 0 500.000000 500.000000"
 preserveAspectRatio="xMidYMid meet">
<metadata>
Created by potrace 1.14, written by Peter Selinger 2001-2017
</metadata>
<g transform="translate(0.000000,500.000000) scale(0.100000,-0.100000)"
fill="#000000" stroke="none">
<path d="M1879 4716 c-2 -2 -35 -6 -74 -9 -38 -4 -95 -11 -125 -17 -30 -6 -68
-13 -85 -16 -209 -35 -284 -84 -290 -189 -3 -41 -11 -111 -21 -170 -2 -16 -11
-52 -19 -80 -114 -402 -116 -413 -109 -825 2 -190 7 -379 9 -420 2 -41 6 -221
9 -400 8 -410 15 -551 36 -670 5 -30 12 -70 15 -89 21 -127 96 -341 157 -451
37 -66 90 -153 98 -160 21 -19 101 -136 105 -154 2 -11 6 -57 8 -101 5 -93 26
-158 75 -235 72 -113 242 -251 396 -319 95 -43 273 -97 386 -118 133 -24 406
-24 515 1 109 24 103 22 165 44 230 82 366 218 414 417 32 129 38 241 40 685
1 291 3 339 18 365 17 32 73 68 123 79 85 20 126 62 119 122 -9 75 -71 165
-131 191 -54 22 -188 26 -278 9 -152 -30 -288 -121 -467 -314 -51 -55 -181
-237 -267 -374 -80 -128 -137 -192 -189 -209 -47 -15 -139 -6 -189 19 -42 22
-217 194 -276 272 -112 148 -156 298 -151 515 2 55 3 149 5 210 1 60 6 123 12
140 33 100 143 169 308 192 67 9 280 10 334 1 268 -44 334 -51 480 -52 201 -1
219 6 366 153 126 127 198 209 309 356 93 123 104 145 117 230 19 131 2 265
-61 490 -19 66 -46 176 -61 245 -15 69 -39 150 -54 180 -35 72 -122 159 -193
192 -142 67 -724 200 -1108 253 -48 7 -465 16 -471 11z m384 -70 c42 -3 110
-11 150 -16 39 -6 90 -13 112 -16 263 -35 508 -88 590 -128 129 -62 171 -126
209 -318 38 -190 51 -406 33 -548 -10 -81 -49 -229 -77 -295 -21 -48 -22 -49
-37 -30 -46 62 -66 123 -88 270 -44 299 -282 458 -860 575 -77 15 -164 31
-194 35 -30 4 -63 8 -74 11 -98 18 -344 25 -498 13 -132 -11 -159 17 -146 147
9 90 73 176 165 223 137 70 415 100 715 77z m1252 -457 c83 -197 144 -391 163
-524 4 -27 7 -124 7 -215 0 -144 -3 -174 -23 -235 -12 -38 -35 -88 -50 -109
-32 -47 -115 -107 -181 -132 -25 -9 -57 -25 -71 -34 -14 -9 -30 -20 -37 -24
-6 -3 10 59 37 139 69 206 127 438 157 630 23 147 -2 433 -53 598 -3 9 -3 17
-1 17 3 0 26 -50 52 -111z m-1720 -54 c77 -4 148 -9 158 -11 10 -1 53 -6 95
-9 42 -3 88 -8 102 -10 14 -3 50 -7 80 -10 148 -15 304 -59 450 -127 151 -70
239 -137 287 -218 11 -19 35 -102 52 -185 27 -125 82 -378 96 -435 16 -67 35
-165 35 -181 0 -11 -11 -31 -25 -44 -32 -33 -67 -32 -230 4 -143 32 -398 81
-495 97 -19 3 -46 7 -60 10 -14 2 -43 7 -65 10 -22 3 -53 7 -70 9 -78 12 -224
20 -363 20 -147 0 -155 -1 -172 -22 -50 -62 -70 -477 -35 -698 2 -11 6 -37 9
-58 32 -209 139 -446 295 -653 156 -206 283 -325 421 -394 243 -121 500 -51
775 214 44 41 80 74 81 73 1 -1 4 -83 8 -182 3 -99 9 -198 14 -220 4 -22 7
-128 7 -235 0 -182 -2 -198 -23 -245 -56 -122 -218 -214 -442 -252 -59 -10
-321 -10 -385 0 -182 28 -413 131 -530 234 -81 72 -163 230 -180 348 -4 22 -8
130 -9 240 -2 110 -7 225 -10 255 -25 210 -30 240 -52 343 -13 66 -110 446
-149 592 -9 33 -18 67 -20 75 -2 8 -13 51 -24 95 -12 44 -23 87 -26 95 -36
137 -104 413 -108 440 -3 19 -10 67 -16 105 -33 225 -32 448 5 615 3 14 7 36
10 49 10 50 43 132 65 163 51 72 100 96 214 107 44 4 82 6 85 5 3 -1 68 -5
145 -9z m275 -1149 c14 -2 50 -6 80 -10 30 -4 93 -14 140 -21 47 -8 102 -17
124 -21 21 -3 48 -8 60 -10 11 -2 48 -9 81 -15 33 -6 92 -17 130 -24 39 -8 84
-17 100 -19 64 -12 278 -67 298 -78 28 -14 37 -27 37 -54 0 -43 -66 -52 -230
-30 -19 2 -64 7 -100 11 -70 7 -89 9 -195 24 -366 53 -574 14 -701 -132 -33
-38 -92 -146 -98 -179 -12 -67 -20 -62 -43 27 -31 121 -38 174 -37 276 1 97
19 185 43 213 43 50 70 58 181 52 58 -4 116 -8 130 -10z m-668 -759 c84 -261
100 -316 113 -382 3 -16 7 -42 10 -57 26 -137 26 -241 1 -375 -5 -31 -17 -19
-62 64 -61 111 -108 235 -128 338 -9 44 -19 94 -22 110 -9 41 -14 575 -6 575
4 0 46 -123 94 -273z m2224 -103 c37 -5 95 -59 87 -80 -8 -21 -33 -32 -121
-55 -233 -61 -400 -191 -574 -448 -128 -188 -190 -244 -299 -266 -19 -3 -42
-9 -52 -11 -14 -4 60 107 121 181 4 6 50 73 102 150 112 165 122 178 260 315
88 89 119 112 190 147 101 50 218 77 286 67z m-172 -380 c9 -8 16 -21 16 -27
1 -76 10 -588 12 -637 3 -112 -11 -222 -43 -342 -8 -33 -14 -38 -39 -38 -22 0
-30 5 -31 18 0 21 -5 119 -13 282 -13 256 -17 326 -21 385 -14 198 -18 263
-20 285 -2 33 20 77 42 83 39 10 82 6 97 -9z"/>
</g>
</svg>
